<mxfile host="65bd71144e">
    <diagram id="XDxCzikrx0DDeYIclWdH" name="Page-1">
        <mxGraphModel dx="2738" dy="2295" grid="1" gridSize="10" guides="1" tooltips="1" connect="1" arrows="1" fold="1" page="1" pageScale="1" pageWidth="850" pageHeight="1100" math="0" shadow="0">
            <root>
                <mxCell id="0"/>
                <mxCell id="1" parent="0"/>
                <mxCell id="376" value="" style="group" vertex="1" connectable="0" parent="1">
                    <mxGeometry x="-765" y="1530" width="255" height="160" as="geometry"/>
                </mxCell>
                <mxCell id="374" value="&lt;font style=&quot;font-size: 18px&quot;&gt;csv_split.py&lt;/font&gt;" style="rounded=0;whiteSpace=wrap;html=1;" vertex="1" parent="376">
                    <mxGeometry width="255" height="40" as="geometry"/>
                </mxCell>
                <mxCell id="366" value="" style="group;fillColor=#a20025;fontColor=#ffffff;strokeColor=#6F0000;container=0;" vertex="1" connectable="0" parent="376">
                    <mxGeometry y="40" width="252.5" height="120" as="geometry"/>
                </mxCell>
                <mxCell id="377" value="" style="edgeStyle=none;html=1;" edge="1" parent="376" source="360" target="374">
                    <mxGeometry relative="1" as="geometry"/>
                </mxCell>
                <mxCell id="360" value="Split into Individual Flights&lt;br&gt;(5min gap)" style="whiteSpace=wrap;html=1;" vertex="1" parent="376">
                    <mxGeometry x="57.5" y="50" width="145" height="48" as="geometry"/>
                </mxCell>
                <mxCell id="245" value="" style="group;fillColor=#a20025;fontColor=#ffffff;strokeColor=#6F0000;container=0;" parent="1" vertex="1" connectable="0">
                    <mxGeometry x="-760" y="1210" width="255" height="290" as="geometry"/>
                </mxCell>
                <mxCell id="198" value="&lt;font style=&quot;font-size: 19px&quot;&gt;System Composition&lt;/font&gt;" style="whiteSpace=wrap;html=1;fillColor=#008a00;fontColor=#ffffff;strokeColor=#005700;align=center;" parent="1" vertex="1">
                    <mxGeometry x="-670" y="40" width="490" height="50" as="geometry"/>
                </mxCell>
                <mxCell id="224" style="edgeStyle=none;html=1;" parent="1" source="207" target="209" edge="1">
                    <mxGeometry relative="1" as="geometry"/>
                </mxCell>
                <mxCell id="207" value="For all items in CitabriaData" style="whiteSpace=wrap;html=1;" parent="1" vertex="1">
                    <mxGeometry x="-640" y="530" width="150" height="60" as="geometry"/>
                </mxCell>
                <mxCell id="331" value="" style="edgeStyle=none;html=1;" parent="1" source="209" target="330" edge="1">
                    <mxGeometry relative="1" as="geometry"/>
                </mxCell>
                <mxCell id="209" value="breakCSV" style="whiteSpace=wrap;html=1;" parent="1" vertex="1">
                    <mxGeometry x="-640" y="660" width="150" height="60" as="geometry"/>
                </mxCell>
                <mxCell id="345" style="edgeStyle=none;html=1;" parent="1" source="213" target="215" edge="1">
                    <mxGeometry relative="1" as="geometry"/>
                </mxCell>
                <mxCell id="213" value="main_parser" style="whiteSpace=wrap;html=1;" parent="1" vertex="1">
                    <mxGeometry x="-360" y="650" width="150" height="60" as="geometry"/>
                </mxCell>
                <mxCell id="218" value="" style="edgeStyle=none;html=1;exitX=0.5;exitY=1;exitDx=0;exitDy=0;entryX=0.5;entryY=0;entryDx=0;entryDy=0;" parent="1" source="215" target="217" edge="1">
                    <mxGeometry relative="1" as="geometry">
                        <mxPoint x="-830.0000000000002" y="870" as="sourcePoint"/>
                        <mxPoint x="-210" y="900" as="targetPoint"/>
                    </mxGeometry>
                </mxCell>
                <mxCell id="215" value="Pickle Individual Calculated values&amp;nbsp;" style="whiteSpace=wrap;html=1;" parent="1" vertex="1">
                    <mxGeometry x="-360" y="760" width="150" height="60" as="geometry"/>
                </mxCell>
                <mxCell id="348" value="" style="edgeStyle=none;html=1;" parent="1" source="217" target="347" edge="1">
                    <mxGeometry relative="1" as="geometry"/>
                </mxCell>
                <mxCell id="217" value="Graph Each element in text File" style="whiteSpace=wrap;html=1;" parent="1" vertex="1">
                    <mxGeometry x="-360" y="870" width="150" height="60" as="geometry"/>
                </mxCell>
                <mxCell id="227" style="edgeStyle=none;html=1;entryX=0.5;entryY=0;entryDx=0;entryDy=0;" parent="1" source="225" target="213" edge="1">
                    <mxGeometry relative="1" as="geometry">
                        <mxPoint x="-360" y="370" as="targetPoint"/>
                    </mxGeometry>
                </mxCell>
                <mxCell id="225" value="Navigator.py&lt;br&gt;User Selects flights from Partitioned_Data" style="whiteSpace=wrap;html=1;" parent="1" vertex="1">
                    <mxGeometry x="-360" y="530" width="150" height="60" as="geometry"/>
                </mxCell>
                <mxCell id="343" style="edgeStyle=none;html=1;entryX=0.5;entryY=0;entryDx=0;entryDy=0;" parent="1" source="229" target="342" edge="1">
                    <mxGeometry relative="1" as="geometry"/>
                </mxCell>
                <mxCell id="229" value="FinalApproach.py" style="whiteSpace=wrap;html=1;" parent="1" vertex="1">
                    <mxGeometry x="-500.5" y="260" width="150" height="60" as="geometry"/>
                </mxCell>
                <mxCell id="233" style="edgeStyle=none;html=1;entryX=0.5;entryY=0;entryDx=0;entryDy=0;" parent="1" source="232" target="229" edge="1">
                    <mxGeometry relative="1" as="geometry"/>
                </mxCell>
                <mxCell id="232" value="Start" style="ellipse;whiteSpace=wrap;html=1;" parent="1" vertex="1">
                    <mxGeometry x="-460.5" y="140" width="70" height="70" as="geometry"/>
                </mxCell>
                <mxCell id="238" value="&lt;font style=&quot;font-size: 24px&quot;&gt;Directory: Modules&lt;/font&gt;" style="rounded=0;whiteSpace=wrap;html=1;fillColor=#008a00;fontColor=#ffffff;strokeColor=#005700;" parent="1" vertex="1">
                    <mxGeometry x="-765" y="1130" width="680" height="50" as="geometry"/>
                </mxCell>
                <mxCell id="327" value="" style="group" parent="1" vertex="1" connectable="0">
                    <mxGeometry x="-829" y="-1090" width="807" height="450" as="geometry"/>
                </mxCell>
                <mxCell id="312" value="" style="whiteSpace=wrap;html=1;fontSize=18;" parent="327" vertex="1">
                    <mxGeometry width="807" height="450" as="geometry"/>
                </mxCell>
                <mxCell id="324" value="" style="group;fillColor=#e3c800;fontColor=#000000;strokeColor=#B09500;" parent="327" vertex="1" connectable="0">
                    <mxGeometry x="39" y="90" width="350" height="260" as="geometry"/>
                </mxCell>
                <mxCell id="323" value="&lt;font style=&quot;font-size: 17px&quot;&gt;Visible Directory:&lt;br&gt;Final Approach&lt;/font&gt;" style="whiteSpace=wrap;html=1;dashed=1;fillColor=#f0a30a;strokeColor=#BD7000;fontColor=#000000;align=right;" parent="324" vertex="1">
                    <mxGeometry width="350" height="260" as="geometry"/>
                </mxCell>
                <mxCell id="317" value="Final_Approach.py" style="whiteSpace=wrap;html=1;" parent="324" vertex="1">
                    <mxGeometry x="5" y="10" width="115" height="60" as="geometry"/>
                </mxCell>
                <mxCell id="314" value="Citabria_Data" style="whiteSpace=wrap;html=1;" parent="324" vertex="1">
                    <mxGeometry x="5" y="190" width="115" height="60" as="geometry"/>
                </mxCell>
                <mxCell id="316" value="Partitioned_Data" style="whiteSpace=wrap;html=1;" parent="324" vertex="1">
                    <mxGeometry x="10" y="100" width="110" height="60" as="geometry"/>
                </mxCell>
                <mxCell id="325" value="" style="group" parent="327" vertex="1" connectable="0">
                    <mxGeometry x="419" y="90" width="350" height="260" as="geometry"/>
                </mxCell>
                <mxCell id="318" value="Hidden Directory:&lt;br style=&quot;font-size: 17px;&quot;&gt;&lt;b style=&quot;font-size: 17px;&quot;&gt;Code&lt;/b&gt;" style="whiteSpace=wrap;html=1;dashed=1;fillColor=#e51400;strokeColor=#B20000;fontColor=#ffffff;align=right;fontSize=17;" parent="325" vertex="1">
                    <mxGeometry width="349.99999999999994" height="260" as="geometry"/>
                </mxCell>
                <mxCell id="319" value="&lt;b&gt;Parsers&lt;/b&gt;&lt;br&gt;&lt;br&gt;breakCSV.py&lt;br&gt;main_parser.py" style="whiteSpace=wrap;html=1;dashed=1;dashPattern=1 1;" parent="325" vertex="1">
                    <mxGeometry x="9.96649916247906" y="10" width="142.46231155778892" height="100" as="geometry"/>
                </mxCell>
                <mxCell id="320" value="Calculator.py" style="whiteSpace=wrap;html=1;dashed=1;dashPattern=1 1;" parent="325" vertex="1">
                    <mxGeometry x="9.96649916247906" y="190" width="140.7035175879397" height="60" as="geometry"/>
                </mxCell>
                <mxCell id="321" value="UserSelect.py" style="whiteSpace=wrap;html=1;dashed=1;dashPattern=1 1;" parent="325" vertex="1">
                    <mxGeometry x="11.725293132328307" y="120" width="140.7035175879397" height="60" as="geometry"/>
                </mxCell>
                <mxCell id="326" value="Final Approach Folder" style="text;html=1;align=center;verticalAlign=middle;resizable=0;points=[];autosize=1;strokeColor=none;fillColor=none;fontSize=23;" parent="327" vertex="1">
                    <mxGeometry x="283.5" y="30" width="240" height="30" as="geometry"/>
                </mxCell>
                <mxCell id="351" style="edgeStyle=none;html=1;entryX=0;entryY=0.5;entryDx=0;entryDy=0;exitX=1;exitY=0.5;exitDx=0;exitDy=0;" parent="1" source="330" target="225" edge="1">
                    <mxGeometry relative="1" as="geometry">
                        <Array as="points">
                            <mxPoint x="-450" y="800"/>
                            <mxPoint x="-390" y="560"/>
                        </Array>
                    </mxGeometry>
                </mxCell>
                <mxCell id="330" value="breakCSV_individual_&lt;br&gt;Flights" style="whiteSpace=wrap;html=1;" parent="1" vertex="1">
                    <mxGeometry x="-640" y="770" width="150" height="60" as="geometry"/>
                </mxCell>
                <mxCell id="339" value="" style="group" parent="1" vertex="1" connectable="0">
                    <mxGeometry x="30" y="50" width="330" height="260" as="geometry"/>
                </mxCell>
                <mxCell id="338" value="" style="whiteSpace=wrap;html=1;" parent="339" vertex="1">
                    <mxGeometry y="-17.333333333333332" width="330" height="173.3333333333333" as="geometry"/>
                </mxCell>
                <mxCell id="333" value="1. Do we save&lt;br&gt;the flights by day or individual flights? If both it will be too &lt;br&gt;much for user&lt;br&gt;&lt;br&gt;2. How to enable user to select entire directiories instead&lt;br&gt;of picking lfights one by one to see patterns" style="text;html=1;align=left;verticalAlign=middle;resizable=0;points=[];autosize=1;strokeColor=none;fillColor=none;" parent="339" vertex="1">
                    <mxGeometry x="5" y="39" width="320" height="90" as="geometry"/>
                </mxCell>
                <mxCell id="336" value="Design Questions" style="text;html=1;align=center;verticalAlign=middle;resizable=0;points=[];autosize=1;strokeColor=none;fillColor=none;" parent="339" vertex="1">
                    <mxGeometry x="110" y="17.333333333333332" width="110" height="20" as="geometry"/>
                </mxCell>
                <mxCell id="344" style="edgeStyle=none;html=1;exitX=0;exitY=0.5;exitDx=0;exitDy=0;entryX=0.5;entryY=0;entryDx=0;entryDy=0;" parent="1" source="342" target="207" edge="1">
                    <mxGeometry relative="1" as="geometry">
                        <Array as="points">
                            <mxPoint x="-565" y="390"/>
                        </Array>
                    </mxGeometry>
                </mxCell>
                <mxCell id="349" style="edgeStyle=none;html=1;entryX=0.5;entryY=0;entryDx=0;entryDy=0;" parent="1" source="342" target="225" edge="1">
                    <mxGeometry relative="1" as="geometry">
                        <Array as="points">
                            <mxPoint x="-285" y="390"/>
                        </Array>
                    </mxGeometry>
                </mxCell>
                <mxCell id="342" value="Split?" style="rhombus;whiteSpace=wrap;html=1;" parent="1" vertex="1">
                    <mxGeometry x="-465" y="350" width="80" height="80" as="geometry"/>
                </mxCell>
                <mxCell id="347" value="End" style="ellipse;whiteSpace=wrap;html=1;" parent="1" vertex="1">
                    <mxGeometry x="-307.5" y="970" width="45" height="40" as="geometry"/>
                </mxCell>
                <mxCell id="352" value="Split Large&lt;br&gt;CSV" style="text;html=1;align=center;verticalAlign=middle;resizable=0;points=[];autosize=1;strokeColor=none;fillColor=none;" parent="1" vertex="1">
                    <mxGeometry x="-660" y="415" width="70" height="30" as="geometry"/>
                </mxCell>
                <mxCell id="353" value="Select pre-Split &lt;br&gt;CSV" style="text;html=1;align=center;verticalAlign=middle;resizable=0;points=[];autosize=1;strokeColor=none;fillColor=none;" parent="1" vertex="1">
                    <mxGeometry x="-290" y="350" width="100" height="30" as="geometry"/>
                </mxCell>
                <mxCell id="354" value="Yes" style="text;html=1;align=center;verticalAlign=middle;resizable=0;points=[];autosize=1;strokeColor=none;fillColor=none;" parent="1" vertex="1">
                    <mxGeometry x="-530" y="360" width="40" height="20" as="geometry"/>
                </mxCell>
                <mxCell id="355" value="No" style="text;html=1;align=center;verticalAlign=middle;resizable=0;points=[];autosize=1;strokeColor=none;fillColor=none;" parent="1" vertex="1">
                    <mxGeometry x="-380.5" y="360" width="30" height="20" as="geometry"/>
                </mxCell>
                <mxCell id="361" value="" style="edgeStyle=none;html=1;entryX=0;entryY=0.5;entryDx=0;entryDy=0;exitX=0;exitY=0.5;exitDx=0;exitDy=0;" edge="1" parent="1" source="248" target="360">
                    <mxGeometry relative="1" as="geometry">
                        <mxPoint x="-820" y="1740" as="targetPoint"/>
                        <Array as="points">
                            <mxPoint x="-800" y="1448"/>
                            <mxPoint x="-800" y="1604"/>
                        </Array>
                    </mxGeometry>
                </mxCell>
                <mxCell id="269" value="" style="group" parent="1" vertex="1" connectable="0">
                    <mxGeometry x="-760" y="1200" width="255" height="272" as="geometry"/>
                </mxCell>
                <mxCell id="163" value="&lt;font style=&quot;font-size: 18px&quot;&gt;breakCSV.py&lt;/font&gt;" style="rounded=0;whiteSpace=wrap;html=1;" parent="269" vertex="1">
                    <mxGeometry width="255" height="40" as="geometry"/>
                </mxCell>
                <mxCell id="180" value="create_Folder_Directory for Split CSV" style="whiteSpace=wrap;html=1;" parent="269" vertex="1">
                    <mxGeometry x="52.5" y="56" width="150" height="48" as="geometry"/>
                </mxCell>
                <mxCell id="182" value="Split CSV by Date Column" style="whiteSpace=wrap;html=1;" parent="269" vertex="1">
                    <mxGeometry x="55" y="144" width="145" height="48" as="geometry"/>
                </mxCell>
                <mxCell id="185" style="edgeStyle=none;html=1;" parent="269" source="180" target="182" edge="1">
                    <mxGeometry relative="1" as="geometry"/>
                </mxCell>
                <mxCell id="248" value="Export Split CSV to Folders" style="whiteSpace=wrap;html=1;" parent="269" vertex="1">
                    <mxGeometry x="55" y="224" width="145" height="48" as="geometry"/>
                </mxCell>
                <mxCell id="249" value="" style="edgeStyle=none;html=1;" parent="269" source="182" target="248" edge="1">
                    <mxGeometry relative="1" as="geometry"/>
                </mxCell>
                <mxCell id="375" value="" style="group" vertex="1" connectable="0" parent="1">
                    <mxGeometry x="-345" y="1190" width="265" height="720" as="geometry"/>
                </mxCell>
                <mxCell id="250" value="" style="group;fillColor=#a20025;fontColor=#ffffff;strokeColor=#6F0000;container=0;" parent="375" vertex="1" connectable="0">
                    <mxGeometry y="20" width="260" height="700" as="geometry"/>
                </mxCell>
                <mxCell id="251" value="&lt;font style=&quot;font-size: 18px&quot;&gt;main_parser.py&lt;/font&gt;" style="rounded=0;whiteSpace=wrap;html=1;" parent="375" vertex="1">
                    <mxGeometry width="265" height="40" as="geometry"/>
                </mxCell>
                <mxCell id="252" value="load_raw_data from Split CSV" style="whiteSpace=wrap;html=1;" parent="375" vertex="1">
                    <mxGeometry x="52.5" y="70" width="150" height="60" as="geometry"/>
                </mxCell>
                <mxCell id="253" value="find indexes of Landings in DataFrame" style="whiteSpace=wrap;html=1;" parent="375" vertex="1">
                    <mxGeometry x="55" y="160" width="145" height="50" as="geometry"/>
                </mxCell>
                <mxCell id="254" style="edgeStyle=none;html=1;" parent="375" source="252" target="253" edge="1">
                    <mxGeometry relative="1" as="geometry"/>
                </mxCell>
                <mxCell id="255" value="gather altitudes of Final Approach" style="whiteSpace=wrap;html=1;" parent="375" vertex="1">
                    <mxGeometry x="55" y="240" width="145" height="60" as="geometry"/>
                </mxCell>
                <mxCell id="256" value="" style="edgeStyle=none;html=1;" parent="375" source="253" target="255" edge="1">
                    <mxGeometry relative="1" as="geometry"/>
                </mxCell>
                <mxCell id="259" value="gather Speeds of Final Approach" style="whiteSpace=wrap;html=1;" parent="375" vertex="1">
                    <mxGeometry x="55" y="340" width="145" height="60" as="geometry"/>
                </mxCell>
                <mxCell id="266" style="edgeStyle=none;html=1;fontSize=18;" parent="375" source="255" target="259" edge="1">
                    <mxGeometry relative="1" as="geometry"/>
                </mxCell>
                <mxCell id="297" value="Calculate Speed Ranges" style="whiteSpace=wrap;html=1;" parent="375" vertex="1">
                    <mxGeometry x="52.5" y="440.0038461538463" width="150" height="58.84615384615385" as="geometry"/>
                </mxCell>
                <mxCell id="364" style="edgeStyle=none;html=1;entryX=0.5;entryY=0;entryDx=0;entryDy=0;" edge="1" parent="375" source="259" target="297">
                    <mxGeometry relative="1" as="geometry"/>
                </mxCell>
                <mxCell id="298" value="Calculate Avergae Speed within Altitude Range" style="whiteSpace=wrap;html=1;" parent="375" vertex="1">
                    <mxGeometry x="57.5" y="540.0030769230771" width="145" height="49.03846153846153" as="geometry"/>
                </mxCell>
                <mxCell id="299" style="edgeStyle=none;html=1;" parent="375" source="297" target="298" edge="1">
                    <mxGeometry relative="1" as="geometry"/>
                </mxCell>
                <mxCell id="300" value="Calculate Rate of Descent" style="whiteSpace=wrap;html=1;" parent="375" vertex="1">
                    <mxGeometry x="57.5" y="640.0046153846154" width="145" height="58.84615384615385" as="geometry"/>
                </mxCell>
                <mxCell id="301" value="" style="edgeStyle=none;html=1;" parent="375" source="298" target="300" edge="1">
                    <mxGeometry relative="1" as="geometry"/>
                </mxCell>
                <mxCell id="378" value="through shell &lt;br&gt;command" style="text;html=1;align=center;verticalAlign=middle;resizable=0;points=[];autosize=1;strokeColor=none;fillColor=none;" vertex="1" parent="1">
                    <mxGeometry x="-840" y="1710" width="80" height="30" as="geometry"/>
                </mxCell>
                <mxCell id="379" value="" style="group" vertex="1" connectable="0" parent="1">
                    <mxGeometry x="-760" y="1840" width="255" height="160" as="geometry"/>
                </mxCell>
                <mxCell id="380" value="&lt;span style=&quot;font-size: 18px&quot;&gt;UserSelect.py&lt;br&gt;&lt;/span&gt;" style="rounded=0;whiteSpace=wrap;html=1;" vertex="1" parent="379">
                    <mxGeometry width="255" height="40" as="geometry"/>
                </mxCell>
                <mxCell id="381" value="" style="group;fillColor=#a20025;fontColor=#ffffff;strokeColor=#6F0000;container=0;" vertex="1" connectable="0" parent="379">
                    <mxGeometry y="40" width="252.5" height="120" as="geometry"/>
                </mxCell>
                <mxCell id="382" value="" style="edgeStyle=none;html=1;" edge="1" parent="379" source="383" target="380">
                    <mxGeometry relative="1" as="geometry"/>
                </mxCell>
                <mxCell id="383" value="User Chooses Partitioned File" style="whiteSpace=wrap;html=1;" vertex="1" parent="379">
                    <mxGeometry x="57.5" y="50" width="145" height="48" as="geometry"/>
                </mxCell>
                <mxCell id="384" style="edgeStyle=none;html=1;exitX=0.5;exitY=1;exitDx=0;exitDy=0;entryX=0;entryY=0.5;entryDx=0;entryDy=0;" edge="1" parent="1" source="360" target="383">
                    <mxGeometry relative="1" as="geometry">
                        <mxPoint x="-790" y="1940" as="targetPoint"/>
                        <Array as="points">
                            <mxPoint x="-640" y="1810"/>
                            <mxPoint x="-820" y="1810"/>
                            <mxPoint x="-820" y="1914"/>
                        </Array>
                    </mxGeometry>
                </mxCell>
                <mxCell id="385" style="edgeStyle=none;html=1;exitX=1;exitY=0.5;exitDx=0;exitDy=0;entryX=0;entryY=0.5;entryDx=0;entryDy=0;" edge="1" parent="1" source="383" target="252">
                    <mxGeometry relative="1" as="geometry">
                        <Array as="points">
                            <mxPoint x="-440" y="1914"/>
                            <mxPoint x="-440" y="1290"/>
                        </Array>
                    </mxGeometry>
                </mxCell>
            </root>
        </mxGraphModel>
    </diagram>
</mxfile>